<svg width="100" height="61" viewBox="0 0 100 61" fill="none" xmlns="http://www.w3.org/2000/svg">
<rect y="19" width="100" height="42" rx="21" fill="#332A9A"/>
<rect width="14" height="14" rx="7" transform="matrix(-1 0 0 1 60 0)" fill="#332A9A"/>
<rect width="14" height="14" rx="7" transform="matrix(-1 0 0 1 38 0)" fill="#332A9A"/>
<rect width="14" height="14" rx="7" transform="matrix(-1 0 0 1 16 0)" fill="#332A9A"/>
<path d="M9.51742 32.2162C7.91939 36.1214 7.93814 40.5015 9.56955 44.3928C11.2009 48.2841 14.3114 51.368 18.2165 52.9661C22.1217 54.5641 26.5017 54.5453 30.3931 52.9139C34.2844 51.2825 37.3683 48.1721 38.9663 44.2669L24.2419 38.2416L9.51742 32.2162Z" fill="white"/>
</svg>
