<svg width="14" height="15" viewBox="0 0 14 15" fill="none" xmlns="http://www.w3.org/2000/svg">
<path d="M11.6375 12.3867C10.3833 12.3867 9.16086 12.1157 7.97008 11.5736C6.77931 11.0316 5.72444 10.3154 4.8055 9.42501C3.88656 8.53464 3.14767 7.51216 2.58883 6.35755C2.03 5.20294 1.75039 4.01799 1.75 2.80269C1.75 2.63306 1.80833 2.4917 1.925 2.37861C2.04167 2.26553 2.1875 2.20898 2.3625 2.20898H4.725C4.86111 2.20898 4.98264 2.25139 5.08958 2.33621C5.19653 2.42102 5.25972 2.52939 5.27917 2.66133L5.65833 4.64034C5.67778 4.77227 5.67525 4.89252 5.65075 5.00108C5.62625 5.10964 5.57044 5.20614 5.48333 5.29058L4.06875 6.67589C4.47708 7.3544 4.99003 7.99051 5.60758 8.58421C6.22514 9.17792 6.90317 9.69151 7.64167 10.125L9.0125 8.79625C9.1 8.71144 9.21433 8.64773 9.3555 8.60513C9.49667 8.56254 9.63511 8.55085 9.77083 8.57008L11.7833 8.96588C11.9194 8.99415 12.0312 9.05786 12.1187 9.15699C12.2062 9.25613 12.25 9.37148 12.25 9.50304V11.793C12.25 11.9627 12.1917 12.104 12.075 12.2171C11.9583 12.3302 11.8125 12.3867 11.6375 12.3867ZM3.51458 5.60157L4.47708 4.66861L4.22917 3.33985H2.93125C2.97986 3.72622 3.04792 4.10789 3.13542 4.48484C3.22292 4.8618 3.34931 5.23404 3.51458 5.60157ZM8.73542 10.6622C9.11458 10.8224 9.50114 10.9496 9.89508 11.0438C10.289 11.1381 10.6851 11.1993 11.0833 11.2276V9.98365L9.7125 9.71507L8.73542 10.6622Z" fill="#332A9A"/>
</svg>
