<svg width="1127" height="1035" viewBox="0 0 1127 1035" fill="none" xmlns="http://www.w3.org/2000/svg">
<path d="M149.849 800.919L0.205078 248.382L622.273 79.9064C680.597 64.1107 734.747 61.8006 784.725 72.9761C834.703 84.1517 877.488 107.297 913.082 142.411C948.676 177.526 974.025 222.966 989.128 278.731C1004.37 335.008 1005.03 387.133 991.118 435.107C977.459 483.012 951.132 524.188 912.138 558.636C873.4 593.015 824.102 618.31 764.243 634.522L561.647 689.391L516.753 523.63L676.375 480.4C701.444 473.61 721.626 463.477 736.921 449.999C752.402 436.196 762.658 419.828 767.689 400.893C772.976 381.889 772.606 361.259 766.578 339.004C760.482 316.493 750.425 298.624 736.409 285.397C722.58 271.845 705.569 263.273 685.377 259.681C665.371 255.764 642.833 257.2 617.764 263.989L542.558 284.358L709.245 899.822L149.849 800.919Z" fill="#847FBE"/>
<path d="M489.896 285.68L756.511 213.472L831.36 489.841L564.745 562.049L489.896 285.68Z" fill="#847FBE"/>
<path d="M234.19 483.396C234.19 483.396 613.036 557.033 472.311 595.145C331.586 633.258 197.597 590.641 173.037 499.959C148.477 409.276 242.648 304.866 383.373 266.754C524.097 228.641 234.19 483.396 234.19 483.396Z" fill="#221D63"/>
</svg>
