<svg width="166" height="122" viewBox="0 0 166 122" fill="none" xmlns="http://www.w3.org/2000/svg">
<circle cx="61" cy="61" r="60.39" stroke="#F0F40A" stroke-width="1.22"/>
<circle cx="82.96" cy="61" r="60.39" stroke="#F0F40A" stroke-width="1.22"/>
<circle cx="104.92" cy="61" r="60.39" stroke="#F0F40A" stroke-width="1.22"/>
<path d="M98.0018 70.5084C98.0018 72.6055 97.459 74.5815 96.3733 76.4366C95.3279 78.2513 93.7597 79.7636 91.6688 80.9734C89.6181 82.1429 87.1854 82.8285 84.3707 83.0302V87.93H80.5105V82.9697C76.4895 82.6067 73.2526 81.3969 70.7998 79.3402C68.347 77.2432 67.0804 74.4202 67 70.8714H76.0472C76.2885 73.775 77.7763 75.5292 80.5105 76.1341V64.5803C77.6154 63.8544 75.2832 63.1285 73.514 62.4026C71.7448 61.6767 70.2168 60.5072 68.9301 58.8941C67.6434 57.281 67 55.0831 67 52.3005C67 48.792 68.2465 45.9288 70.7395 43.7108C73.2727 41.4927 76.5297 40.2224 80.5105 39.8998V35H84.3707V39.8998C88.2308 40.2224 91.3069 41.3919 93.5988 43.4083C95.931 45.4247 97.2378 48.2073 97.5193 51.7561H88.4118C88.2911 50.5866 87.8689 49.5784 87.1452 48.7315C86.4616 47.8443 85.5368 47.2193 84.3707 46.8563V58.2892C87.3864 59.0554 89.7588 59.8015 91.4878 60.5274C93.2571 61.2129 94.785 62.3623 96.0718 63.9754C97.3585 65.5481 98.0018 67.7258 98.0018 70.5084ZM75.806 51.8771C75.806 53.2079 76.2081 54.2968 77.0123 55.1436C77.8165 55.9502 78.9826 56.6156 80.5105 57.1398V46.6748C79.063 46.8765 77.917 47.4209 77.0726 48.3081C76.2282 49.1953 75.806 50.385 75.806 51.8771ZM84.3707 76.2551C85.8987 75.9728 87.0848 75.3478 87.9293 74.3799C88.8139 73.412 89.2562 72.2425 89.2562 70.8714C89.2562 69.5406 88.834 68.4719 87.9896 67.6653C87.1452 66.8588 85.9389 66.1934 84.3707 65.6691V76.2551Z" fill="#F0F40A"/>
</svg>
