<svg width="18" height="19" viewBox="0 0 18 19" fill="none" xmlns="http://www.w3.org/2000/svg">
<path d="M4.57864 16.062C5.8384 17.0239 7.39602 17.5458 8.99969 17.5435C10.6683 17.5435 12.2039 16.9901 13.4207 16.062M6.89443 3.97192C3.96853 4.84328 1.8418 7.48348 1.8418 10.6053C1.8418 11.3909 1.97653 12.146 2.22495 12.85M11.105 3.97192C14.0308 4.84328 16.1576 7.48348 16.1576 10.6053C16.1576 11.3909 16.0228 12.146 15.7744 12.85" stroke="#332A9A" stroke-width="1.68421"/>
<path d="M17 14.6864C17 15.2341 16.7777 15.7312 16.4156 16.0977C16.0774 16.4401 15.6268 16.6578 15.1412 16.7133C14.6555 16.7687 14.1651 16.6586 13.754 16.4018C13.343 16.1449 13.0371 15.7574 12.8887 15.3057C12.7403 14.8541 12.7588 14.3664 12.941 13.9265C13.1231 13.4866 13.4576 13.1219 13.887 12.895C14.3163 12.6681 14.8138 12.5931 15.294 12.683C15.7741 12.7729 16.207 13.022 16.5183 13.3876C16.8296 13.7532 16.9999 14.2124 17 14.6864ZM5.21053 14.6864C5.21053 15.2341 4.98821 15.7312 4.62611 16.0977C4.28795 16.4401 3.83737 16.6578 3.3517 16.7133C2.86603 16.7687 2.37559 16.6586 1.96456 16.4018C1.55354 16.1449 1.24758 15.7574 1.09922 15.3057C0.950861 14.8541 0.969349 14.3664 1.15151 13.9265C1.33368 13.4866 1.66815 13.1219 2.09751 12.895C2.52687 12.6681 3.02434 12.5931 3.50449 12.683C3.98465 12.7729 4.41754 13.022 4.72885 13.3876C5.04016 13.7532 5.21047 14.2124 5.21053 14.6864ZM11.1053 3.66687C11.1053 4.21458 10.8829 4.71168 10.5208 5.07818C10.1827 5.42061 9.7321 5.63826 9.24644 5.69374C8.76077 5.74923 8.27032 5.6391 7.8593 5.38226C7.44828 5.12542 7.14232 4.73789 6.99396 4.28622C6.8456 3.83454 6.86409 3.34688 7.04625 2.90698C7.22841 2.46707 7.56289 2.10236 7.99225 1.87545C8.42161 1.64855 8.91907 1.57361 9.39923 1.6635C9.87938 1.75339 10.3123 2.0025 10.6236 2.36807C10.9349 2.73363 11.1052 3.19285 11.1053 3.66687Z" stroke="#332A9A" stroke-width="1.68421" stroke-linecap="round" stroke-linejoin="round"/>
</svg>
