<svg width="15" height="15" viewBox="0 0 15 15" fill="none" xmlns="http://www.w3.org/2000/svg">
<path d="M8.75 6.69211H6.25C5.91848 6.69211 5.60054 6.56446 5.36612 6.33723C5.1317 6.11001 5 5.80182 5 5.48048C5 5.15913 5.1317 4.85094 5.36612 4.62372C5.60054 4.39649 5.91848 4.26884 6.25 4.26884H9.375C9.54076 4.26884 9.69973 4.33267 9.81694 4.44628C9.93415 4.55989 10 4.71398 10 4.87466C10 5.03533 10.0658 5.18942 10.1831 5.30304C10.3003 5.41665 10.4592 5.48048 10.625 5.48048C10.7908 5.48048 10.9497 5.41665 11.0669 5.30304C11.1842 5.18942 11.25 5.03533 11.25 4.87466C11.25 4.39264 11.0525 3.93036 10.7008 3.58952C10.3492 3.24868 9.87228 3.0572 9.375 3.0572H8.125V1.84556C8.125 1.68489 8.05915 1.5308 7.94194 1.41719C7.82473 1.30357 7.66576 1.23975 7.5 1.23975C7.33424 1.23975 7.17527 1.30357 7.05806 1.41719C6.94085 1.5308 6.875 1.68489 6.875 1.84556V3.0572H6.25C5.58696 3.0572 4.95107 3.31251 4.48223 3.76696C4.01339 4.22141 3.75 4.83778 3.75 5.48048C3.75 6.12317 4.01339 6.73954 4.48223 7.19399C4.95107 7.64844 5.58696 7.90375 6.25 7.90375H8.75C9.08152 7.90375 9.39946 8.0314 9.63388 8.25863C9.8683 8.48586 10 8.79404 10 9.11539C10 9.43673 9.8683 9.74492 9.63388 9.97214C9.39946 10.1994 9.08152 10.327 8.75 10.327H5.625C5.45924 10.327 5.30027 10.2632 5.18306 10.1496C5.06585 10.036 5 9.88188 5 9.7212C5 9.56053 4.93415 9.40644 4.81694 9.29283C4.69973 9.17921 4.54076 9.11539 4.375 9.11539C4.20924 9.11539 4.05027 9.17921 3.93306 9.29283C3.81585 9.40644 3.75 9.56053 3.75 9.7212C3.75 10.2032 3.94754 10.6655 4.29917 11.0063C4.65081 11.3472 5.12772 11.5387 5.625 11.5387H6.875V12.7503C6.875 12.911 6.94085 13.0651 7.05806 13.1787C7.17527 13.2923 7.33424 13.3561 7.5 13.3561C7.66576 13.3561 7.82473 13.2923 7.94194 13.1787C8.05915 13.0651 8.125 12.911 8.125 12.7503V11.5387H8.75C9.41304 11.5387 10.0489 11.2834 10.5178 10.8289C10.9866 10.3744 11.25 9.75808 11.25 9.11539C11.25 8.47269 10.9866 7.85632 10.5178 7.40187C10.0489 6.94742 9.41304 6.69211 8.75 6.69211Z" fill="#332A9A"/>
</svg>
