<svg width="57" height="57" viewBox="0 0 57 57" fill="none" xmlns="http://www.w3.org/2000/svg">
<path d="M30.7949 5.63518C32.4857 5.62869 34.1765 5.64568 35.8669 5.68615L36.3164 5.70237C36.8354 5.72091 37.3475 5.74408 37.9661 5.77188C40.4314 5.88773 42.1136 6.277 43.5896 6.8493C45.1188 7.43783 46.4071 8.23489 47.6954 9.52317C48.8733 10.6808 49.7849 12.0811 50.3669 13.6266C50.9392 15.1026 51.3285 16.7871 51.4443 19.2524C51.4721 19.8688 51.4953 20.3831 51.5139 20.9022L51.5278 21.3517C51.5689 23.0412 51.5867 24.7313 51.581 26.4213L51.5834 28.1499V31.1852C51.5891 32.876 51.5713 34.5668 51.5301 36.2572L51.5162 36.7067C51.4976 37.2257 51.4745 37.7378 51.4467 38.3564C51.3308 40.8218 50.9369 42.5039 50.3669 43.9799C49.7868 45.5271 48.875 46.9285 47.6954 48.0857C46.5368 49.2635 45.1358 50.1751 43.5896 50.7572C42.1136 51.3295 40.4314 51.7188 37.9661 51.8347C37.3475 51.8625 36.8354 51.8856 36.3164 51.9042L35.8669 51.9181C34.1765 51.9593 32.4857 51.977 30.7949 51.9714L29.0664 51.9737H26.0334C24.3425 51.9794 22.6517 51.9616 20.9614 51.9204L20.5118 51.9065C19.9618 51.8865 19.4119 51.8634 18.8621 51.837C16.3968 51.7211 14.7146 51.3272 13.2363 50.7572C11.6901 50.1764 10.2896 49.2646 9.13286 48.0857C7.95359 46.9278 7.04109 45.5266 6.45899 43.9799C5.88669 42.5039 5.49742 40.8218 5.38157 38.3564C5.35577 37.8066 5.33259 37.2567 5.31206 36.7067L5.30047 36.2572C5.25776 34.5669 5.23845 32.876 5.24255 31.1852V26.4213C5.23608 24.7313 5.25307 23.0412 5.29352 21.3517L5.30974 20.9022C5.32828 20.3831 5.35145 19.8688 5.37925 19.2524C5.49511 16.7848 5.88437 15.1049 6.45668 13.6266C7.03912 12.0803 7.9534 10.6804 9.13518 9.52549C10.2911 8.34554 11.6908 7.43221 13.2363 6.8493C14.7146 6.277 16.3945 5.88773 18.8621 5.77188L20.5118 5.70237L20.9614 5.69078C22.6509 5.64809 24.341 5.62878 26.031 5.63286L30.7949 5.63518ZM28.413 17.2204C26.8779 17.1987 25.3539 17.4823 23.9294 18.0547C22.505 18.6271 21.2085 19.4769 20.1153 20.5547C19.0221 21.6326 18.154 22.9169 17.5615 24.3331C16.969 25.7494 16.6639 27.2692 16.6639 28.8044C16.6639 30.3396 16.969 31.8595 17.5615 33.2757C18.154 34.6919 19.0221 35.9763 20.1153 37.0541C21.2085 38.132 22.505 38.9818 23.9294 39.5542C25.3539 40.1266 26.8779 40.4102 28.413 40.3885C31.4855 40.3885 34.4323 39.1679 36.6049 36.9952C38.7776 34.8226 39.9982 31.8759 39.9982 28.8033C39.9982 25.7307 38.7776 22.7839 36.6049 20.6113C34.4323 18.4386 31.4855 17.2204 28.413 17.2204ZM28.413 21.8545C29.3363 21.8374 30.2538 22.0046 31.1118 22.3462C31.9699 22.6877 32.7512 23.1968 33.4103 23.8437C34.0694 24.4907 34.5929 25.2624 34.9504 26.114C35.3078 26.9655 35.492 27.8797 35.4921 28.8032C35.4923 29.7268 35.3084 30.641 34.9513 31.4927C34.5941 32.3443 34.0708 33.1163 33.412 33.7634C32.7531 34.4106 31.9719 34.92 31.114 35.2618C30.2561 35.6036 29.3386 35.7711 28.4153 35.7544C26.5717 35.7544 24.8037 35.022 23.5001 33.7185C22.1965 32.4149 21.4642 30.6468 21.4642 28.8033C21.4642 26.9597 22.1965 25.1917 23.5001 23.8881C24.8037 22.5845 26.5717 21.8521 28.4153 21.8521L28.413 21.8545ZM40.5774 13.7448C39.8299 13.7747 39.123 14.0927 38.6047 14.6322C38.0864 15.1716 37.7969 15.8907 37.7969 16.6388C37.7969 17.3869 38.0864 18.106 38.6047 18.6454C39.123 19.1849 39.8299 19.5029 40.5774 19.5328C41.3456 19.5328 42.0823 19.2276 42.6254 18.6845C43.1686 18.1413 43.4737 17.4046 43.4737 16.6365C43.4737 15.8683 43.1686 15.1317 42.6254 14.5885C42.0823 14.0453 41.3456 13.7402 40.5774 13.7402V13.7448Z" fill="#E9ED11"/>
</svg>
