<svg width="56" height="57" viewBox="0 0 56 57" fill="none" xmlns="http://www.w3.org/2000/svg">
<path d="M44.2426 7.94922C45.4716 7.94922 46.6503 8.43745 47.5194 9.30651C48.3884 10.1756 48.8766 11.3543 48.8766 12.5833V45.0219C48.8766 46.2509 48.3884 47.4296 47.5194 48.2987C46.6503 49.1677 45.4716 49.6559 44.2426 49.6559H11.804C10.575 49.6559 9.39627 49.1677 8.52721 48.2987C7.65815 47.4296 7.16992 46.2509 7.16992 45.0219V12.5833C7.16992 11.3543 7.65815 10.1756 8.52721 9.30651C9.39627 8.43745 10.575 7.94922 11.804 7.94922H44.2426ZM43.084 43.8633V31.583C43.084 29.5797 42.2882 27.6584 40.8717 26.2419C39.4551 24.8253 37.5338 24.0295 35.5305 24.0295C33.561 24.0295 31.2671 25.2343 30.155 27.0416V24.4697H23.6904V43.8633H30.155V32.4403C30.155 30.6562 31.5915 29.1965 33.3757 29.1965C34.236 29.1965 35.0611 29.5382 35.6694 30.1466C36.2777 30.7549 36.6195 31.58 36.6195 32.4403V43.8633H43.084ZM16.16 20.832C17.1924 20.832 18.1825 20.4218 18.9125 19.6918C19.6426 18.9618 20.0527 17.9717 20.0527 16.9393C20.0527 14.7845 18.3149 13.0235 16.16 13.0235C15.1215 13.0235 14.1255 13.4361 13.3912 14.1704C12.6568 14.9048 12.2442 15.9008 12.2442 16.9393C12.2442 19.0942 14.0052 20.832 16.16 20.832ZM19.3807 43.8633V24.4697H12.9625V43.8633H19.3807Z" fill="#E9ED11"/>
</svg>
