<svg width="41" height="34" viewBox="0 0 41 34" fill="none" xmlns="http://www.w3.org/2000/svg">
<path d="M0.761719 23.8725V0H27.6383C30.1582 0 32.3631 0.497343 34.253 1.49203C36.1429 2.48672 37.6128 3.8848 38.6627 5.68629C39.7127 7.48778 40.2377 9.5932 40.2377 12.0025C40.2377 14.434 39.6961 16.5394 38.613 18.3188C37.541 20.0982 36.0324 21.4686 34.0872 22.4302C32.1531 23.3917 29.8929 23.8725 27.3067 23.8725H18.5535V16.7107H25.45C26.5331 16.7107 27.4559 16.5228 28.2185 16.1471C28.9922 15.7602 29.5835 15.2132 29.9924 14.5058C30.4124 13.7985 30.6224 12.9641 30.6224 12.0025C30.6224 11.03 30.4124 10.2011 29.9924 9.51583C29.5835 8.81955 28.9922 8.28905 28.2185 7.92433C27.4559 7.54856 26.5331 7.36068 25.45 7.36068H22.2007V33.952L0.761719 23.8725Z" fill="white"/>
<path d="M20.0665 6.83979H31.5856V18.7804H20.0665V6.83979Z" fill="white"/>
<path d="M7.61821 12.0111C7.61821 12.0111 22.065 19.1052 15.985 19.1052C9.90492 19.1052 4.97607 15.9291 4.97607 12.0111C4.97607 8.09314 9.90492 4.91699 15.985 4.91699C22.065 4.91699 7.61821 12.0111 7.61821 12.0111Z" fill="#332A9A"/>
</svg>
