<svg width="375" height="64" viewBox="0 0 375 64" fill="none" xmlns="http://www.w3.org/2000/svg">
<path d="M0 41.6C0 29.5381 9.7781 19.76 21.84 19.76H82.16C94.2219 19.76 104 29.5381 104 41.6C104 53.6619 94.2219 63.44 82.16 63.44H21.84C9.7781 63.44 0 53.6619 0 41.6Z" fill="white"/>
<path d="M62.3907 7.28C62.3907 3.25937 59.1313 0 55.1107 0C51.09 0 47.8307 3.25937 47.8307 7.28C47.8307 11.3006 51.09 14.56 55.1107 14.56C59.1313 14.56 62.3907 11.3006 62.3907 7.28Z" fill="white"/>
<path d="M39.52 7.28C39.52 3.25937 36.2606 0 32.24 0C28.2194 0 24.96 3.25937 24.96 7.28C24.96 11.3006 28.2194 14.56 32.24 14.56C36.2606 14.56 39.52 11.3006 39.52 7.28Z" fill="white"/>
<path d="M16.64 7.28C16.64 3.25937 13.3806 0 9.36 0C5.33937 0 2.08 3.25937 2.08 7.28C2.08 11.3006 5.33937 14.56 9.36 14.56C13.3806 14.56 16.64 11.3006 16.64 7.28Z" fill="white"/>
<path d="M11.8804 29.9712C9.28119 33.5068 8.19295 37.9302 8.85509 42.2682C9.51724 46.6063 11.8755 50.5036 15.4112 53.1028C18.9468 55.702 23.3702 56.7903 27.7082 56.1281C32.0463 55.466 35.9436 53.1077 38.5428 49.572L11.8804 29.9712Z" fill="#332A9A"/>
<path d="M138.466 17.8905C142.028 17.8905 144.645 18.6851 146.316 20.2743C147.988 21.8634 148.823 24.0553 148.823 26.8501C148.823 28.1104 148.645 29.316 148.289 30.4667C147.933 31.5901 147.33 32.6039 146.481 33.508C145.659 34.4122 144.563 35.1246 143.193 35.6452C141.823 36.1658 140.138 36.4261 138.138 36.4261H135.507V47.235H130V17.8905H138.466ZM138.261 22.247H135.507V32.0696H137.562C138.768 32.0696 139.795 31.9052 140.645 31.5764C141.494 31.2202 142.138 30.6722 142.576 29.9325C143.042 29.1927 143.275 28.2337 143.275 27.0555C143.275 25.439 142.864 24.2334 142.042 23.4389C141.22 22.6443 139.96 22.247 138.261 22.247Z" fill="white"/>
<path d="M161.644 24.5485C164.329 24.5485 166.384 25.1787 167.809 26.4391C169.234 27.672 169.946 29.6174 169.946 32.2751V47.235H166.124L165.056 44.1526H164.891C164.288 44.9472 163.672 45.6185 163.042 46.1664C162.412 46.687 161.685 47.0569 160.864 47.2761C160.042 47.5227 159.055 47.646 157.904 47.646C156.671 47.646 155.562 47.3994 154.575 46.9062C153.589 46.413 152.808 45.6596 152.233 44.6458C151.657 43.6046 151.37 42.3032 151.37 40.7414C151.37 38.4399 152.164 36.7137 153.753 35.563C155.343 34.3848 157.726 33.7409 160.905 33.6313L164.48 33.508V32.3984C164.48 30.9736 164.179 29.9599 163.576 29.3571C162.973 28.7543 162.151 28.4529 161.11 28.4529C160.124 28.4529 159.124 28.6173 158.11 28.9461C157.124 29.2749 156.151 29.6585 155.192 30.0969L153.507 26.4802C154.63 25.9048 155.877 25.439 157.247 25.0828C158.617 24.7266 160.083 24.5485 161.644 24.5485ZM162.179 36.7959C160.233 36.8781 158.877 37.2754 158.11 37.9878C157.343 38.6728 156.959 39.6044 156.959 40.7825C156.959 41.8237 157.219 42.5772 157.74 43.0429C158.288 43.5087 159 43.7416 159.877 43.7416C161.165 43.7416 162.261 43.3169 163.165 42.4676C164.069 41.5908 164.521 40.303 164.521 38.6043V36.7137L162.179 36.7959Z" fill="white"/>
<path d="M183.779 47.646C181.724 47.646 179.943 47.2487 178.436 46.4541C176.957 45.6322 175.806 44.3855 174.984 42.7141C174.189 41.0154 173.792 38.8509 173.792 36.2206C173.792 33.4806 174.23 31.2613 175.107 29.5626C176.011 27.8364 177.244 26.5761 178.806 25.7815C180.395 24.9595 182.19 24.5485 184.19 24.5485C185.45 24.5485 186.628 24.6855 187.724 24.9595C188.848 25.2335 189.779 25.5623 190.519 25.9459L188.875 29.9325C188.135 29.6311 187.396 29.3708 186.656 29.1516C185.916 28.9324 185.176 28.8228 184.436 28.8228C183.313 28.8228 182.382 29.0968 181.642 29.6448C180.902 30.1928 180.327 31.0147 179.916 32.1107C179.532 33.1793 179.34 34.5355 179.34 36.1795C179.34 37.7686 179.532 39.0975 179.916 40.166C180.327 41.2346 180.902 42.0429 181.642 42.5909C182.382 43.1114 183.286 43.3717 184.354 43.3717C185.423 43.3717 186.409 43.221 187.313 42.9196C188.245 42.6183 189.122 42.2073 189.944 41.6867V46.1664C189.094 46.687 188.19 47.0569 187.231 47.2761C186.272 47.5227 185.121 47.646 183.779 47.646Z" fill="white"/>
<path d="M202.704 47.646C200.649 47.646 198.868 47.2487 197.361 46.4541C195.881 45.6322 194.73 44.3855 193.908 42.7141C193.114 41.0154 192.717 38.8509 192.717 36.2206C192.717 33.4806 193.155 31.2613 194.032 29.5626C194.936 27.8364 196.169 26.5761 197.731 25.7815C199.32 24.9595 201.114 24.5485 203.115 24.5485C204.375 24.5485 205.553 24.6855 206.649 24.9595C207.772 25.2335 208.704 25.5623 209.444 25.9459L207.8 29.9325C207.06 29.6311 206.32 29.3708 205.581 29.1516C204.841 28.9324 204.101 28.8228 203.361 28.8228C202.238 28.8228 201.306 29.0968 200.566 29.6448C199.827 30.1928 199.251 31.0147 198.84 32.1107C198.457 33.1793 198.265 34.5355 198.265 36.1795C198.265 37.7686 198.457 39.0975 198.84 40.166C199.251 41.2346 199.827 42.0429 200.566 42.5909C201.306 43.1114 202.21 43.3717 203.279 43.3717C204.348 43.3717 205.334 43.221 206.238 42.9196C207.17 42.6183 208.046 42.2073 208.868 41.6867V46.1664C208.019 46.687 207.115 47.0569 206.156 47.2761C205.197 47.5227 204.046 47.646 202.704 47.646Z" fill="white"/>
<path d="M221.669 24.5485C224.354 24.5485 226.409 25.1787 227.834 26.4391C229.259 27.672 229.971 29.6174 229.971 32.2751V47.235H226.149L225.081 44.1526H224.916C224.313 44.9472 223.697 45.6185 223.067 46.1664C222.437 46.687 221.71 47.0569 220.888 47.2761C220.067 47.5227 219.08 47.646 217.929 47.646C216.696 47.646 215.587 47.3994 214.6 46.9062C213.614 46.413 212.833 45.6596 212.258 44.6458C211.682 43.6046 211.395 42.3032 211.395 40.7414C211.395 38.4399 212.189 36.7137 213.778 35.563C215.368 34.3848 217.751 33.7409 220.93 33.6313L224.505 33.508V32.3984C224.505 30.9736 224.204 29.9599 223.601 29.3571C222.998 28.7543 222.176 28.4529 221.135 28.4529C220.149 28.4529 219.149 28.6173 218.135 28.9461C217.148 29.2749 216.176 29.6585 215.217 30.0969L213.532 26.4802C214.655 25.9048 215.902 25.439 217.272 25.0828C218.642 24.7266 220.108 24.5485 221.669 24.5485ZM222.204 36.7959C220.258 36.8781 218.902 37.2754 218.135 37.9878C217.368 38.6728 216.984 39.6044 216.984 40.7825C216.984 41.8237 217.244 42.5772 217.765 43.0429C218.313 43.5087 219.025 43.7416 219.902 43.7416C221.19 43.7416 222.286 43.3169 223.19 42.4676C224.094 41.5908 224.546 40.303 224.546 38.6043V36.7137L222.204 36.7959Z" fill="white"/>
<path d="M239.982 47.235L231.967 24.9595H237.68L241.667 37.8234C241.859 38.344 242.009 38.9194 242.119 39.5496C242.256 40.1523 242.379 40.7551 242.489 41.3579C242.598 41.9333 242.653 42.4402 242.653 42.8785H242.818C242.872 42.4128 242.941 41.8922 243.023 41.3168C243.133 40.714 243.27 40.1112 243.434 39.5085C243.598 38.9057 243.749 38.344 243.886 37.8234L247.914 24.9595H253.626L245.612 47.235H239.982Z" fill="white"/>
<path d="M264.696 24.5485C267.381 24.5485 269.436 25.1787 270.861 26.4391C272.286 27.672 272.998 29.6174 272.998 32.2751V47.235H269.176L268.107 44.1526H267.943C267.34 44.9472 266.724 45.6185 266.094 46.1664C265.463 46.687 264.737 47.0569 263.915 47.2761C263.093 47.5227 262.107 47.646 260.956 47.646C259.723 47.646 258.614 47.3994 257.627 46.9062C256.641 46.413 255.86 45.6596 255.285 44.6458C254.709 43.6046 254.421 42.3032 254.421 40.7414C254.421 38.4399 255.216 36.7137 256.805 35.563C258.394 34.3848 260.778 33.7409 263.956 33.6313L267.532 33.508V32.3984C267.532 30.9736 267.231 29.9599 266.628 29.3571C266.025 28.7543 265.203 28.4529 264.162 28.4529C263.176 28.4529 262.175 28.6173 261.162 28.9461C260.175 29.2749 259.203 29.6585 258.244 30.0969L256.559 26.4802C257.682 25.9048 258.929 25.439 260.299 25.0828C261.669 24.7266 263.134 24.5485 264.696 24.5485ZM265.23 36.7959C263.285 36.8781 261.929 37.2754 261.162 37.9878C260.395 38.6728 260.011 39.6044 260.011 40.7825C260.011 41.8237 260.271 42.5772 260.792 43.0429C261.34 43.5087 262.052 43.7416 262.929 43.7416C264.217 43.7416 265.313 43.3169 266.217 42.4676C267.121 41.5908 267.573 40.303 267.573 38.6043V36.7137L265.23 36.7959Z" fill="white"/>
<path d="M283.419 47.235H277.953V16H283.419V47.235Z" fill="white"/>
<path d="M297.407 47.646C295.352 47.646 293.571 47.2487 292.064 46.4541C290.585 45.6322 289.434 44.3855 288.612 42.7141C287.817 41.0154 287.42 38.8509 287.42 36.2206C287.42 33.4806 287.859 31.2613 288.735 29.5626C289.64 27.8364 290.872 26.5761 292.434 25.7815C294.023 24.9595 295.818 24.5485 297.818 24.5485C299.079 24.5485 300.257 24.6855 301.353 24.9595C302.476 25.2335 303.408 25.5623 304.147 25.9459L302.503 29.9325C301.764 29.6311 301.024 29.3708 300.284 29.1516C299.544 28.9324 298.805 28.8228 298.065 28.8228C296.941 28.8228 296.01 29.0968 295.27 29.6448C294.53 30.1928 293.955 31.0147 293.544 32.1107C293.16 33.1793 292.969 34.5355 292.969 36.1795C292.969 37.7686 293.16 39.0975 293.544 40.166C293.955 41.2346 294.53 42.0429 295.27 42.5909C296.01 43.1114 296.914 43.3717 297.983 43.3717C299.051 43.3717 300.037 43.221 300.942 42.9196C301.873 42.6183 302.75 42.2073 303.572 41.6867V46.1664C302.723 46.687 301.818 47.0569 300.859 47.2761C299.9 47.5227 298.75 47.646 297.407 47.646Z" fill="white"/>
<path d="M316.373 24.5485C319.058 24.5485 321.113 25.1787 322.538 26.4391C323.963 27.672 324.675 29.6174 324.675 32.2751V47.235H320.853L319.784 44.1526H319.62C319.017 44.9472 318.4 45.6185 317.77 46.1664C317.14 46.687 316.414 47.0569 315.592 47.2761C314.77 47.5227 313.784 47.646 312.633 47.646C311.4 47.646 310.29 47.3994 309.304 46.9062C308.318 46.413 307.537 45.6596 306.961 44.6458C306.386 43.6046 306.098 42.3032 306.098 40.7414C306.098 38.4399 306.893 36.7137 308.482 35.563C310.071 34.3848 312.455 33.7409 315.633 33.6313L319.209 33.508V32.3984C319.209 30.9736 318.907 29.9599 318.305 29.3571C317.702 28.7543 316.88 28.4529 315.839 28.4529C314.852 28.4529 313.852 28.6173 312.838 28.9461C311.852 29.2749 310.879 29.6585 309.92 30.0969L308.235 26.4802C309.359 25.9048 310.605 25.439 311.975 25.0828C313.345 24.7266 314.811 24.5485 316.373 24.5485ZM316.907 36.7959C314.962 36.8781 313.606 37.2754 312.838 37.9878C312.071 38.6728 311.688 39.6044 311.688 40.7825C311.688 41.8237 311.948 42.5772 312.469 43.0429C313.017 43.5087 313.729 43.7416 314.606 43.7416C315.893 43.7416 316.989 43.3169 317.894 42.4676C318.798 41.5908 319.25 40.303 319.25 38.6043V36.7137L316.907 36.7959Z" fill="white"/>
<path d="M341.343 24.5485C343.672 24.5485 345.508 25.1924 346.851 26.4802C348.193 27.7679 348.864 29.8503 348.864 32.7272V47.235H343.398V33.7546C343.398 32.0833 343.111 30.8366 342.535 30.0147C341.96 29.1653 341.056 28.7406 339.823 28.7406C337.987 28.7406 336.74 29.3982 336.083 30.7133C335.425 32.0011 335.096 33.8779 335.096 36.3439V47.235H329.63V24.9595H333.822L334.603 27.8775H334.809C335.302 27.1103 335.877 26.4802 336.535 25.987C337.192 25.4938 337.932 25.1376 338.754 24.9184C339.576 24.6718 340.439 24.5485 341.343 24.5485Z" fill="white"/>
<path d="M362.566 43.495C363.168 43.495 363.744 43.4402 364.292 43.3306C364.867 43.1936 365.401 43.0429 365.895 42.8785V46.7418C365.319 46.9884 364.621 47.1939 363.799 47.3583C362.977 47.5501 362.059 47.646 361.045 47.646C359.785 47.646 358.661 47.4405 357.675 47.0295C356.689 46.5911 355.908 45.8514 355.332 44.8102C354.784 43.769 354.51 42.3169 354.51 40.4537V28.8639H351.716V26.6035L354.839 24.7951L356.483 20.0688H359.935V24.9595H365.689V28.8639H359.935V40.4126C359.935 41.4538 360.168 42.2347 360.634 42.7552C361.127 43.2484 361.771 43.495 362.566 43.495Z" fill="white"/>
<path d="M374.591 24.9595V47.235H369.166V24.9595H374.591ZM371.92 16.3699C372.714 16.3699 373.399 16.5754 373.975 16.9864C374.55 17.37 374.838 18.0686 374.838 19.0824C374.838 20.0688 374.55 20.7811 373.975 21.2195C373.399 21.6305 372.714 21.836 371.92 21.836C371.07 21.836 370.358 21.6305 369.783 21.2195C369.207 20.7811 368.92 20.0688 368.92 19.0824C368.92 18.0686 369.207 17.37 369.783 16.9864C370.358 16.5754 371.07 16.3699 371.92 16.3699Z" fill="white"/>
</svg>
