<svg width="102" height="88" viewBox="0 0 102 88" fill="none" xmlns="http://www.w3.org/2000/svg">
<path d="M0 61.6829V0H69.4451C75.9561 0 81.6532 1.28506 86.5364 3.85519C91.4197 6.4253 95.2177 10.0378 97.9306 14.6925C100.644 19.3473 102 24.7874 102 31.0128C102 37.2953 100.601 42.7354 97.8021 47.3331C95.0321 51.9307 91.1341 55.4718 86.1081 57.9563C81.1106 60.4407 75.2707 61.6829 68.5884 61.6829H45.9713V43.1781H63.7909C66.5894 43.1781 68.9739 42.6926 70.9444 41.7216C72.9433 40.7222 74.4711 39.3086 75.5277 37.4809C76.6129 35.6533 77.1555 33.4973 77.1555 31.0128C77.1555 28.4998 76.6129 26.358 75.5277 24.5875C74.4711 22.7884 72.9433 21.4177 70.9444 20.4753C68.9739 19.5044 66.5894 19.0189 63.7909 19.0189H55.3951V87.7268L0 61.6829Z" fill="white"/>
<path d="M49.8806 17.673H79.6444V48.5257H49.8806V17.673Z" fill="white"/>
<path d="M17.716 31.0342C17.716 31.0342 55.0444 49.3644 39.3345 49.3644C23.6246 49.3644 10.8892 41.1577 10.8892 31.0342C10.8892 20.9108 23.6246 12.7041 39.3345 12.7041C55.0444 12.7041 17.716 31.0342 17.716 31.0342Z" fill="#332A9A"/>
</svg>
