<svg width="51" height="31" viewBox="0 0 51 31" fill="none" xmlns="http://www.w3.org/2000/svg">
<path d="M0 20.3147C0 14.4245 4.77499 9.6495 10.6652 9.6495H40.1216C46.0119 9.6495 50.7868 14.4245 50.7868 20.3147C50.7868 26.205 46.0119 30.98 40.1216 30.98H10.6652C4.77499 30.98 0 26.205 0 20.3147Z" fill="white"/>
<path d="M30.4676 3.55508C30.4676 1.59166 28.8759 0 26.9125 0C24.9491 0 23.3574 1.59166 23.3574 3.55508C23.3574 5.5185 24.9491 7.11016 26.9125 7.11016C28.8759 7.11016 30.4676 5.5185 30.4676 3.55508Z" fill="white"/>
<path d="M19.299 3.55508C19.299 1.59166 17.7073 0 15.7439 0C13.7805 0 12.1888 1.59166 12.1888 3.55508C12.1888 5.5185 13.7805 7.11016 15.7439 7.11016C17.7073 7.11016 19.299 5.5185 19.299 3.55508Z" fill="white"/>
<path d="M8.12589 3.55508C8.12589 1.59166 6.53423 0 4.57082 0C2.6074 0 1.01574 1.59166 1.01574 3.55508C1.01574 5.5185 2.6074 7.11016 4.57082 7.11016C6.53423 7.11016 8.12589 5.5185 8.12589 3.55508Z" fill="white"/>
<path d="M5.80163 14.636C4.53233 16.3626 4.0009 18.5227 4.32425 20.6411C4.6476 22.7595 5.79924 24.6627 7.52582 25.932C9.25241 27.2013 11.4125 27.7327 13.5309 27.4093C15.6493 27.086 17.5525 25.9343 18.8218 24.2078L5.80163 14.636Z" fill="#332A9A"/>
</svg>
