<svg width="29" height="28" viewBox="0 0 29 28" fill="none" xmlns="http://www.w3.org/2000/svg">
<path d="M11.7816 17.5002L17.8366 14.0002L11.7816 10.5002V17.5002ZM25.2682 8.36516C25.4199 8.9135 25.5249 9.6485 25.5949 10.5818C25.6766 11.5152 25.7116 12.3202 25.7116 13.0202L25.7816 14.0002C25.7816 16.5552 25.5949 18.4335 25.2682 19.6352C24.9766 20.6852 24.2999 21.3618 23.2499 21.6535C22.7016 21.8052 21.6982 21.9102 20.1582 21.9802C18.6416 22.0618 17.2532 22.0968 15.9699 22.0968L14.1149 22.1668C9.22658 22.1668 6.18158 21.9802 4.97991 21.6535C3.92991 21.3618 3.25324 20.6852 2.96158 19.6352C2.80991 19.0868 2.70491 18.3518 2.63491 17.4185C2.55324 16.4852 2.51824 15.6802 2.51824 14.9802L2.44824 14.0002C2.44824 11.4452 2.63491 9.56683 2.96158 8.36516C3.25324 7.31516 3.92991 6.6385 4.97991 6.34683C5.52824 6.19516 6.53158 6.09016 8.07158 6.02016C9.58824 5.9385 10.9766 5.9035 12.2599 5.9035L14.1149 5.8335C19.0032 5.8335 22.0482 6.02016 23.2499 6.34683C24.2999 6.6385 24.9766 7.31516 25.2682 8.36516Z" fill="#E9ED11"/>
</svg>
