<svg width="262" height="138" viewBox="0 0 262 138" fill="none" xmlns="http://www.w3.org/2000/svg">
<rect width="262" height="137.73" rx="12.1722" fill="#433AB1"/>
<path d="M151 80.5389C151 83.1693 150.317 85.6479 148.951 87.9747C147.636 90.251 145.663 92.1479 143.033 93.6654C140.453 95.1323 137.393 95.9922 133.852 96.2451V102.391H128.996V96.1693C123.938 95.714 119.866 94.1965 116.78 91.6167C113.695 88.9864 112.101 85.4455 112 80.9942H123.381C123.685 84.6362 125.556 86.8366 128.996 87.5953V73.1031C125.354 72.1926 122.42 71.2821 120.195 70.3716C117.969 69.4611 116.047 67.9942 114.428 65.9708C112.809 63.9475 112 61.1907 112 57.7004C112 53.2996 113.568 49.7082 116.704 46.9261C119.891 44.144 123.988 42.5506 128.996 42.1459V36H133.852V42.1459C138.708 42.5506 142.578 44.0175 145.461 46.5467C148.395 49.0759 150.039 52.5661 150.393 57.0175H138.936C138.784 55.5506 138.253 54.286 137.342 53.2237C136.482 52.1109 135.319 51.3268 133.852 50.8716V65.2121C137.646 66.1731 140.63 67.1089 142.805 68.0195C145.031 68.8794 146.953 70.321 148.572 72.3444C150.191 74.3171 151 77.0486 151 80.5389ZM123.078 57.1693C123.078 58.8385 123.584 60.2043 124.595 61.2665C125.607 62.2782 127.074 63.1128 128.996 63.7704V50.644C127.175 50.8969 125.733 51.5798 124.671 52.6926C123.609 53.8054 123.078 55.2977 123.078 57.1693ZM133.852 87.7471C135.774 87.393 137.267 86.6089 138.329 85.3949C139.442 84.1809 139.998 82.714 139.998 80.9942C139.998 79.3249 139.467 77.9844 138.405 76.9728C137.342 75.9611 135.825 75.1265 133.852 74.4689V87.7471Z" fill="#F0F40A"/>
</svg>
