<svg width="166" height="122" viewBox="0 0 166 122" fill="none" xmlns="http://www.w3.org/2000/svg">
<circle cx="61" cy="61" r="60.39" stroke="#F0F40A" stroke-width="1.22"/>
<circle cx="82.96" cy="61" r="60.39" stroke="#F0F40A" stroke-width="1.22"/>
<circle cx="104.92" cy="61" r="60.39" stroke="#F0F40A" stroke-width="1.22"/>
<path d="M83.1213 37.8203C87.6018 37.8203 91.1991 39.0481 93.9133 41.5038C96.6705 43.9164 98.0492 47.2553 98.0492 51.5204C98.0492 55.7424 96.6921 58.9735 93.9779 61.2138C91.2637 63.411 87.6664 64.5096 83.1859 64.5096L82.9274 69.4855H74.9788L74.6557 58.4996H77.5637C81.3118 58.4996 84.1983 58.0042 86.2232 57.0133C88.248 56.0224 89.2604 54.213 89.2604 51.585C89.2604 49.6894 88.7004 48.1815 87.5802 47.0614C86.5032 45.9413 85.0169 45.3812 83.1213 45.3812C81.1395 45.3812 79.5885 45.9197 78.4684 46.9968C77.3914 48.0738 76.8528 49.5601 76.8528 51.4557H68.3226C68.2795 48.8277 68.8396 46.4798 70.0028 44.4119C71.166 42.3439 72.8678 40.7283 75.108 39.5651C77.3914 38.4019 80.0624 37.8203 83.1213 37.8203ZM78.9208 84.9304C77.2837 84.9304 75.9266 84.435 74.8495 83.4441C73.8156 82.4101 73.2986 81.1392 73.2986 79.6313C73.2986 78.1235 73.8156 76.8741 74.8495 75.8832C75.9266 74.8492 77.2837 74.3323 78.9208 74.3323C80.5148 74.3323 81.8288 74.8492 82.8628 75.8832C83.8967 76.8741 84.4137 78.1235 84.4137 79.6313C84.4137 81.1392 83.8967 82.4101 82.8628 83.4441C81.8288 84.435 80.5148 84.9304 78.9208 84.9304Z" fill="#F0F40A"/>
</svg>
