<svg width="57" height="57" viewBox="0 0 57 57" fill="none" xmlns="http://www.w3.org/2000/svg">
<path d="M25.3458 31.2125C25.3458 29.8917 24.2568 28.8027 22.9361 28.8027C21.6154 28.8027 20.5264 29.8917 20.5264 31.2125C20.5264 31.8516 20.7802 32.4645 21.2322 32.9164C21.6841 33.3683 22.297 33.6222 22.9361 33.6222C23.5752 33.6222 24.1881 33.3683 24.64 32.9164C25.0919 32.4645 25.3458 31.8516 25.3458 31.2125ZM33.0847 36.7038C32.0421 37.7465 29.8177 38.1172 28.2421 38.1172C26.6665 38.1172 24.4422 37.7465 23.3995 36.7038C23.3431 36.6435 23.275 36.5954 23.1992 36.5625C23.1235 36.5296 23.0418 36.5126 22.9593 36.5126C22.8767 36.5126 22.795 36.5296 22.7193 36.5625C22.6435 36.5954 22.5754 36.6435 22.519 36.7038C22.4587 36.7602 22.4106 36.8284 22.3777 36.9041C22.3448 36.9798 22.3278 37.0615 22.3278 37.1441C22.3278 37.2266 22.3448 37.3083 22.3777 37.3841C22.4106 37.4598 22.4587 37.528 22.519 37.5843C24.1641 39.2294 27.3153 39.3684 28.2421 39.3684C29.1689 39.3684 32.3201 39.2294 33.9652 37.5843C34.0255 37.528 34.0736 37.4598 34.1065 37.3841C34.1394 37.3083 34.1564 37.2266 34.1564 37.1441C34.1564 37.0615 34.1394 36.9798 34.1065 36.9041C34.0736 36.8284 34.0255 36.7602 33.9652 36.7038C33.7335 36.4721 33.3396 36.4721 33.0847 36.7038ZM33.5481 28.8027C32.2274 28.8027 31.1384 29.8917 31.1384 31.2125C31.1384 32.5332 32.2274 33.6222 33.5481 33.6222C34.8688 33.6222 35.9579 32.5332 35.9579 31.2125C35.9579 29.8917 34.892 28.8027 33.5481 28.8027Z" fill="#E9ED11"/>
<path d="M28.2427 5.63232C15.4526 5.63232 5.07227 16.0127 5.07227 28.8027C5.07227 41.5928 15.4526 51.9731 28.2427 51.9731C41.0327 51.9731 51.4131 41.5928 51.4131 28.8027C51.4131 16.0127 41.0327 5.63232 28.2427 5.63232ZM41.6815 31.8844C41.7278 32.2088 41.751 32.5563 41.751 32.9039C41.751 38.0941 35.7035 42.3111 28.2427 42.3111C20.7818 42.3111 14.7343 38.0941 14.7343 32.9039C14.7343 32.5563 14.7575 32.2088 14.8038 31.8844C13.6221 31.3515 12.8112 30.1698 12.8112 28.8027C12.8077 28.1383 13.0007 27.4877 13.3659 26.9326C13.731 26.3775 14.252 25.9426 14.8635 25.6827C15.475 25.4228 16.1496 25.3493 16.8027 25.4716C17.4558 25.5938 18.0582 25.9063 18.5343 26.3698C20.8745 24.6784 24.1183 23.6126 27.7098 23.4967L29.4244 15.4102C29.4475 15.248 29.5402 15.109 29.6792 15.0395C29.8183 14.9468 29.9805 14.9237 30.1426 14.9468L35.7499 16.1517C35.9401 15.7661 36.2299 15.4384 36.5894 15.2026C36.949 14.9668 37.365 14.8314 37.7945 14.8106C38.2239 14.7898 38.6511 14.8843 39.0317 15.0843C39.4123 15.2842 39.7325 15.5823 39.9591 15.9478C40.1857 16.3132 40.3103 16.7325 40.3202 17.1624C40.33 17.5922 40.2247 18.0169 40.0151 18.3923C39.8055 18.7677 39.4993 19.0801 39.1282 19.2973C38.7571 19.5145 38.3347 19.6284 37.9047 19.6272C36.6072 19.6272 35.5645 18.6078 35.495 17.3334L30.467 16.2675L28.9378 23.4967C32.4829 23.6126 35.6572 24.7016 37.9742 26.3698C38.3294 26.0307 38.7545 25.7732 39.2196 25.6154C39.6847 25.4576 40.1786 25.4034 40.6669 25.4565C41.1551 25.5096 41.6259 25.6687 42.0462 25.9227C42.4666 26.1768 42.8263 26.5196 43.1003 26.9271C43.3743 27.3347 43.556 27.7973 43.6326 28.2824C43.7091 28.7675 43.6788 29.2635 43.5437 29.7357C43.4085 30.2079 43.1718 30.6448 42.8502 31.016C42.5285 31.3871 42.1297 31.6835 41.6815 31.8844Z" fill="#E9ED11"/>
</svg>
