<svg width="29" height="28" viewBox="0 0 29 28" fill="none" xmlns="http://www.w3.org/2000/svg">
<path d="M15.3115 2.33493C16.1629 2.33166 17.0142 2.34022 17.8653 2.3606L18.0917 2.36876C18.353 2.3781 18.6108 2.38976 18.9223 2.40376C20.1637 2.4621 21.0107 2.6581 21.7538 2.94627C22.5238 3.2426 23.1725 3.64393 23.8212 4.2926C24.4143 4.87547 24.8733 5.58054 25.1663 6.35877C25.4545 7.10193 25.6505 7.9501 25.7088 9.19143C25.7228 9.50177 25.7345 9.76077 25.7438 10.0221L25.7508 10.2484C25.7716 11.0992 25.7805 11.9501 25.7777 12.8011L25.7788 13.6714V15.1998C25.7817 16.0511 25.7728 16.9025 25.752 17.7536L25.745 17.9799C25.7357 18.2413 25.724 18.4991 25.71 18.8106C25.6517 20.0519 25.4533 20.8989 25.1663 21.6421C24.8743 22.4212 24.4151 23.1268 23.8212 23.7094C23.2378 24.3025 22.5324 24.7615 21.7538 25.0546C21.0107 25.3428 20.1637 25.5388 18.9223 25.5971C18.6108 25.6111 18.353 25.6228 18.0917 25.6321L17.8653 25.6391C17.0142 25.6598 16.1629 25.6688 15.3115 25.6659L14.4412 25.6671H12.914C12.0626 25.67 11.2113 25.661 10.3602 25.6403L10.1338 25.6333C9.85688 25.6232 9.57998 25.6116 9.30316 25.5983C8.06183 25.5399 7.21483 25.3416 6.4705 25.0546C5.69196 24.7622 4.98677 24.3031 4.40433 23.7094C3.81055 23.1264 3.35109 22.4209 3.058 21.6421C2.76983 20.8989 2.57383 20.0519 2.5155 18.8106C2.5025 18.5338 2.49084 18.2569 2.4805 17.9799L2.47466 17.7536C2.45316 16.9025 2.44343 16.0511 2.4455 15.1998V12.8011C2.44224 11.9501 2.4508 11.0992 2.47116 10.2484L2.47933 10.0221C2.48866 9.76077 2.50033 9.50177 2.51433 9.19143C2.57266 7.94893 2.76866 7.1031 3.05683 6.35877C3.3501 5.58016 3.81046 4.87528 4.4055 4.29377C4.98754 3.69964 5.69229 3.23977 6.4705 2.94627C7.21483 2.6581 8.06066 2.4621 9.30316 2.40376L10.1338 2.36876L10.3602 2.36293C11.2109 2.34143 12.0618 2.33171 12.9128 2.33376L15.3115 2.33493ZM14.1122 8.16827C13.3393 8.15733 12.5719 8.30013 11.8546 8.58834C11.1374 8.87656 10.4846 9.30446 9.93415 9.84716C9.38371 10.3899 8.94663 11.0366 8.6483 11.7497C8.34997 12.4628 8.19634 13.228 8.19634 14.001C8.19634 14.774 8.34997 15.5393 8.6483 16.2524C8.94663 16.9655 9.38371 17.6122 9.93415 18.1549C10.4846 18.6976 11.1374 19.1255 11.8546 19.4137C12.5719 19.7019 13.3393 19.8447 14.1122 19.8338C15.6593 19.8338 17.143 19.2192 18.237 18.1252C19.3309 17.0313 19.9455 15.5475 19.9455 14.0004C19.9455 12.4533 19.3309 10.9696 18.237 9.87564C17.143 8.78168 15.6593 8.16827 14.1122 8.16827ZM14.1122 10.5016C14.5771 10.493 15.0391 10.5772 15.4711 10.7492C15.9031 10.9212 16.2966 11.1775 16.6284 11.5032C16.9603 11.829 17.2239 12.2176 17.4038 12.6463C17.5838 13.0751 17.6766 13.5354 17.6766 14.0004C17.6767 14.4654 17.5841 14.9258 17.4043 15.3546C17.2245 15.7834 16.961 16.1721 16.6292 16.498C16.2975 16.8238 15.9042 17.0803 15.4722 17.2524C15.0402 17.4245 14.5783 17.5088 14.1133 17.5004C13.1851 17.5004 12.2948 17.1317 11.6385 16.4753C10.9821 15.8189 10.6133 14.9287 10.6133 14.0004C10.6133 13.0722 10.9821 12.1819 11.6385 11.5256C12.2948 10.8692 13.1851 10.5004 14.1133 10.5004L14.1122 10.5016ZM20.2372 6.41827C19.8608 6.43333 19.5048 6.59344 19.2439 6.86507C18.9829 7.13669 18.8372 7.49876 18.8372 7.87543C18.8372 8.25211 18.9829 8.61417 19.2439 8.8858C19.5048 9.15742 19.8608 9.31753 20.2372 9.3326C20.6239 9.3326 20.9949 9.17895 21.2684 8.90546C21.5419 8.63197 21.6955 8.26104 21.6955 7.87427C21.6955 7.48749 21.5419 7.11656 21.2684 6.84307C20.9949 6.56958 20.6239 6.41593 20.2372 6.41593V6.41827Z" fill="#E9ED11"/>
</svg>
