<svg width="16" height="15" viewBox="0 0 16 15" fill="none" xmlns="http://www.w3.org/2000/svg">
<g clip-path="url(#clip0_21_83)">
<path d="M13.639 2.5H2.32855C1.77738 2.5 1.33057 2.91973 1.33057 3.4375V11.5625C1.33057 12.0803 1.77738 12.5 2.32855 12.5H13.639C14.1902 12.5 14.637 12.0803 14.637 11.5625V3.4375C14.637 2.91973 14.1902 2.5 13.639 2.5Z" stroke="#332A9A" stroke-width="1.33065" stroke-linejoin="round"/>
<path d="M1.33057 3.4375C1.33057 3.18886 1.43571 2.9504 1.62287 2.77459C1.81003 2.59877 2.06387 2.5 2.32855 2.5H13.639C13.9037 2.5 14.1576 2.59877 14.3447 2.77459C14.5319 2.9504 14.637 3.18886 14.637 3.4375V6.25H1.33057V3.4375Z" stroke="#332A9A" stroke-width="1.33065"/>
<path d="M2.66105 4.375C2.66105 4.02982 2.95893 3.75 3.32638 3.75C3.69382 3.75 3.9917 4.02982 3.9917 4.375C3.9917 4.72018 3.69382 5 3.32638 5C2.95893 5 2.66105 4.72018 2.66105 4.375Z" fill="#332A9A"/>
<path d="M4.65715 4.375C4.65715 4.02982 4.95502 3.75 5.32247 3.75C5.68992 3.75 5.98779 4.02982 5.98779 4.375C5.98779 4.72018 5.68992 5 5.32247 5C4.95502 5 4.65715 4.72018 4.65715 4.375Z" fill="#332A9A"/>
</g>
<defs>
<clipPath id="clip0_21_83">
<rect width="15.9677" height="15" fill="white"/>
</clipPath>
</defs>
</svg>
