<svg width="57" height="57" viewBox="0 0 57 57" fill="none" xmlns="http://www.w3.org/2000/svg">
<path d="M23.9982 35.7539L36.0237 28.8028L23.9982 21.8517V35.7539ZM50.7832 17.6115C51.0844 18.7005 51.293 20.1602 51.432 22.0139C51.5942 23.8675 51.6637 25.4662 51.6637 26.8565L51.8027 28.8028C51.8027 33.8771 51.432 37.6075 50.7832 39.9941C50.204 42.0794 48.8601 43.4233 46.7747 44.0026C45.6857 44.3038 43.6931 44.5123 40.6346 44.6513C37.6224 44.8135 34.8652 44.883 32.3164 44.883L28.6323 45.0221C18.9239 45.0221 12.8764 44.6513 10.4899 44.0026C8.40456 43.4233 7.06067 42.0794 6.48141 39.9941C6.1802 38.9051 5.97166 37.4453 5.83264 35.5917C5.67045 33.7381 5.60094 32.1393 5.60094 30.7491L5.46191 28.8028C5.46191 23.7285 5.83264 19.998 6.48141 17.6115C7.06067 15.5261 8.40456 14.1823 10.4899 13.603C11.5789 13.3018 13.5716 13.0932 16.6301 12.9542C19.6422 12.792 22.3995 12.7225 24.9482 12.7225L28.6323 12.5835C38.3407 12.5835 44.3882 12.9542 46.7747 13.603C48.8601 14.1823 50.204 15.5261 50.7832 17.6115Z" fill="#E9ED11"/>
</svg>
